<svg width="740" height="367" viewBox="0 0 740 367" fill="none" xmlns="http://www.w3.org/2000/svg">
<path d="M568.459 299.672C568.459 304.692 569.408 309.321 571.304 313.56C573.2 317.798 575.766 321.479 579.001 324.603C582.236 327.726 585.972 330.18 590.211 331.965C594.562 333.638 599.135 334.475 603.932 334.475C608.728 334.475 613.246 333.638 617.485 331.965C621.835 330.18 625.627 327.726 628.862 324.603C632.209 321.479 634.83 317.798 636.726 313.56C638.623 309.321 639.571 304.692 639.571 299.672C639.571 294.652 638.623 290.023 636.726 285.784C634.83 281.546 632.209 277.865 628.862 274.741C625.627 271.618 621.835 269.22 617.485 267.546C613.246 265.762 608.728 264.869 603.932 264.869C599.135 264.869 594.562 265.762 590.211 267.546C585.972 269.22 582.236 271.618 579.001 274.741C575.766 277.865 573.2 281.546 571.304 285.784C569.408 290.023 568.459 294.652 568.459 299.672ZM534.159 299.672C534.159 290.302 535.888 281.601 539.346 273.57C542.804 265.427 547.6 258.344 553.735 252.32C559.87 246.297 567.177 241.612 575.654 238.265C584.243 234.807 593.669 233.078 603.932 233.078C614.082 233.078 623.452 234.807 632.041 238.265C640.631 241.612 647.993 246.297 654.128 252.32C660.374 258.344 665.227 265.427 668.685 273.57C672.143 281.601 673.872 290.302 673.872 299.672C673.872 309.042 672.143 317.798 668.685 325.941C665.227 333.973 660.374 341 654.128 347.024C647.993 353.047 640.631 357.788 632.041 361.246C623.452 364.593 614.082 366.266 603.932 366.266C593.669 366.266 584.243 364.593 575.654 361.246C567.177 357.788 559.87 353.047 553.735 347.024C547.6 341 542.804 333.973 539.346 325.941C535.888 317.798 534.159 309.042 534.159 299.672Z" fill="#F6F1EB"/>
<path d="M409.35 362.752V236.592H442.145L502.716 313.727V236.592H535.343V362.752H502.716L442.145 285.617V362.752H409.35Z" fill="#F6F1EB"/>
<path d="M367.226 315.902L352.502 273.905L337.778 315.902H367.226ZM375.927 340.833H329.077L321.548 362.752H286.578L334.599 236.592H370.405L418.426 362.752H383.456L375.927 340.833Z" fill="#F6F1EB"/>
<path d="M260.563 236.592V334.977H299.883V362.752H227.768V236.592H260.563Z" fill="#F6F1EB"/>
<path d="M224.837 236.592V362.752H192.043V236.592H224.837Z" fill="#F6F1EB"/>
<path d="M36.5751 362.752L57.9922 236.592H90.4525L115.718 303.855L140.816 236.592H173.276L194.693 362.752H162.066L151.19 290.135L121.407 362.752H108.356L80.0786 290.135L69.2027 362.752H36.5751Z" fill="#F6F1EB"/>
<g filter="url(#filter0_d_174_317)">
<path d="M703.061 150.828V249.213H670.266V150.828H643.328V123.053H730V150.828H703.061Z" fill="#F6F1EB"/>
</g>
<g filter="url(#filter1_d_174_317)">
<path d="M657.886 165.218C650.301 155.959 640.931 151.33 629.776 151.33C624.868 151.33 620.295 152.223 616.056 154.007C611.929 155.792 608.359 158.246 605.347 161.369C602.335 164.381 599.937 168.006 598.152 172.245C596.479 176.484 595.643 181.058 595.643 185.966C595.643 190.985 596.479 195.614 598.152 199.853C599.937 204.092 602.335 207.773 605.347 210.896C608.471 214.02 612.096 216.474 616.223 218.259C620.35 220.043 624.812 220.936 629.609 220.936C640.094 220.936 649.52 216.474 657.886 207.55V246.368L654.54 247.54C649.52 249.324 644.835 250.607 640.485 251.388C636.134 252.28 631.84 252.727 627.601 252.727C618.9 252.727 610.534 251.109 602.503 247.874C594.583 244.528 587.555 239.899 581.42 233.987C575.397 227.963 570.544 220.88 566.863 212.737C563.182 204.482 561.342 195.503 561.342 185.798C561.342 176.094 563.127 167.226 566.696 159.194C570.377 151.051 575.229 144.08 581.253 138.279C587.388 132.367 594.471 127.794 602.503 124.559C610.534 121.212 618.956 119.539 627.768 119.539C632.788 119.539 637.696 120.097 642.492 121.212C647.401 122.216 652.532 123.834 657.886 126.065V165.218Z" fill="#F6F1EB"/>
</g>
<g filter="url(#filter2_d_174_317)">
<path d="M566.811 150.828H527.825V171.911H564.636V199.686H527.825V221.438H566.811V249.213H495.03V123.053H566.811V150.828Z" fill="#F6F1EB"/>
</g>
<g filter="url(#filter3_d_174_317)">
<path d="M366.004 249.213V123.053H398.799L459.369 200.188V123.053H491.997V249.213H459.369L398.799 172.078V249.213H366.004Z" fill="#F6F1EB"/>
</g>
<g filter="url(#filter4_d_174_317)">
<path d="M236.977 249.213V123.053H269.772L330.342 200.188V123.053H362.97V249.213H330.342L269.772 172.078V249.213H236.977Z" fill="#F6F1EB"/>
</g>
<g filter="url(#filter5_d_174_317)">
<path d="M134.275 186.133C134.275 191.153 135.223 195.782 137.119 200.021C139.016 204.259 141.581 207.94 144.816 211.064C148.051 214.187 151.788 216.641 156.027 218.426C160.377 220.099 164.95 220.936 169.747 220.936C174.543 220.936 179.061 220.099 183.3 218.426C187.65 216.641 191.443 214.187 194.678 211.064C198.024 207.94 200.645 204.259 202.542 200.021C204.438 195.782 205.386 191.153 205.386 186.133C205.386 181.113 204.438 176.484 202.542 172.245C200.645 168.006 198.024 164.325 194.678 161.202C191.443 158.079 187.65 155.68 183.3 154.007C179.061 152.223 174.543 151.33 169.747 151.33C164.95 151.33 160.377 152.223 156.027 154.007C151.788 155.68 148.051 158.079 144.816 161.202C141.581 164.325 139.016 168.006 137.119 172.245C135.223 176.484 134.275 181.113 134.275 186.133ZM99.9741 186.133C99.9741 176.763 101.703 168.062 105.161 160.031C108.619 151.888 113.415 144.805 119.551 138.781C125.686 132.758 132.992 128.073 141.47 124.726C150.059 121.268 159.485 119.539 169.747 119.539C179.898 119.539 189.268 121.268 197.857 124.726C206.446 128.073 213.808 132.758 219.943 138.781C226.19 144.805 231.042 151.888 234.5 160.031C237.958 168.062 239.687 176.763 239.687 186.133C239.687 195.503 237.958 204.259 234.5 212.402C231.042 220.434 226.19 227.461 219.943 233.485C213.808 239.508 206.446 244.249 197.857 247.707C189.268 251.053 179.898 252.727 169.747 252.727C159.485 252.727 150.059 251.053 141.47 247.707C132.992 244.249 125.686 239.508 119.551 233.485C113.415 227.461 108.619 220.434 105.161 212.402C101.703 204.259 99.9741 195.503 99.9741 186.133Z" fill="#F6F1EB"/>
</g>
<g filter="url(#filter6_d_174_317)">
<path d="M106.544 165.218C98.9589 155.959 89.589 151.33 78.4342 151.33C73.5261 151.33 68.9527 152.223 64.7139 154.007C60.5867 155.792 57.0172 158.246 54.0054 161.369C50.9936 164.381 48.5954 168.006 46.8106 172.245C45.1374 176.484 44.3008 181.058 44.3008 185.966C44.3008 190.985 45.1374 195.614 46.8106 199.853C48.5954 204.092 50.9936 207.773 54.0054 210.896C57.1287 214.02 60.754 216.474 64.8812 218.259C69.0085 220.043 73.4704 220.936 78.2669 220.936C88.7524 220.936 98.1781 216.474 106.544 207.55V246.368L103.198 247.54C98.1781 249.324 93.4931 250.607 89.1428 251.388C84.7924 252.28 80.4979 252.727 76.2591 252.727C67.5584 252.727 59.1923 251.109 51.1609 247.874C43.2411 244.528 36.2136 239.899 30.0785 233.987C24.055 227.963 19.2026 220.88 15.5216 212.737C11.8405 204.482 10 195.503 10 185.798C10 176.094 11.7848 167.226 15.3543 159.194C19.0353 151.051 23.8876 144.08 29.9112 138.279C36.0463 132.367 43.1295 127.794 51.1609 124.559C59.1923 121.212 67.6142 119.539 76.4264 119.539C81.446 119.539 86.3541 120.097 91.1506 121.212C96.0587 122.216 101.19 123.834 106.544 126.065V165.218Z" fill="#F6F1EB"/>
</g>
<g filter="url(#filter7_d_174_317)">
<path d="M620.347 37.289H581.361V58.3714H618.172V86.1467H581.361V107.898H620.347V135.674H548.566V9.51373H620.347V37.289Z" fill="#F6F1EB"/>
</g>
<g filter="url(#filter8_d_174_317)">
<path d="M548.855 51.6786C541.27 42.4202 531.9 37.791 520.745 37.791C515.837 37.791 511.264 38.6833 507.025 40.4681C502.898 42.2529 499.328 44.7069 496.316 47.8302C493.304 50.842 490.906 54.4673 489.121 58.7061C487.448 62.9449 486.612 67.5183 486.612 72.4264C486.612 77.446 487.448 82.0752 489.121 86.314C490.906 90.5528 493.304 94.2339 496.316 97.3572C499.44 100.481 503.065 102.935 507.192 104.719C511.319 106.504 515.781 107.396 520.578 107.396C531.063 107.396 540.489 102.935 548.855 94.0108V132.829L545.509 134C540.489 135.785 535.804 137.068 531.454 137.849C527.103 138.741 522.809 139.187 518.57 139.187C509.869 139.187 501.503 137.57 493.472 134.335C485.552 130.989 478.524 126.359 472.389 120.447C466.366 114.424 461.513 107.341 457.832 99.1977C454.151 90.9432 452.311 81.9637 452.311 72.2591C452.311 62.5545 454.096 53.6864 457.665 45.655C461.346 37.5121 466.198 30.5404 472.222 24.7399C478.357 18.8279 485.44 14.2545 493.472 11.0196C501.503 7.67321 509.925 6 518.737 6C523.757 6 528.665 6.55774 533.461 7.67321C538.37 8.67713 543.501 10.2946 548.855 12.5255V51.6786Z" fill="#F6F1EB"/>
</g>
<g filter="url(#filter9_d_174_317)">
<path d="M327.339 135.674V9.51373H360.134L420.704 86.6487V9.51373H453.331V135.674H420.704L360.134 58.5387V135.674H327.339Z" fill="#F6F1EB"/>
</g>
<g filter="url(#filter10_d_174_317)">
<path d="M285.215 88.8238L270.49 46.8263L255.766 88.8238H285.215ZM293.915 113.755H247.065L239.536 135.674H204.566L252.587 9.51373H288.394L336.415 135.674H301.445L293.915 113.755Z" fill="#F6F1EB"/>
</g>
<g filter="url(#filter11_d_174_317)">
<path d="M146.689 107.97H154.218C159.907 107.97 164.983 107.078 169.444 105.293C173.906 103.508 177.643 101.054 180.655 97.9309C183.778 94.8075 186.121 91.1265 187.682 86.8877C189.356 82.5373 190.192 77.7966 190.192 72.6654C190.192 67.6458 189.356 62.9608 187.682 58.6105C186.009 54.2601 183.611 50.5233 180.488 47.4C177.476 44.2766 173.739 41.8226 169.277 40.0378C164.815 38.2531 159.796 37.3607 154.218 37.3607H146.689V107.97ZM113.894 9.58545H162.417C171.006 9.58545 179.038 11.3144 186.511 14.7724C194.096 18.2304 200.678 22.8596 206.255 28.66C211.944 34.3489 216.406 41.0418 219.641 48.7385C222.876 56.3237 224.493 64.2994 224.493 72.6654C224.493 80.9199 222.876 88.8955 219.641 96.5923C216.517 104.178 212.111 110.87 206.422 116.671C200.845 122.471 194.264 127.1 186.678 130.558C179.205 134.016 171.118 135.745 162.417 135.745H113.894V9.58545Z" fill="#F6F1EB"/>
</g>
<defs>
<filter id="filter0_d_174_317" x="633.328" y="117.053" width="106.672" height="146.16" filterUnits="userSpaceOnUse" color-interpolation-filters="sRGB">
<feFlood flood-opacity="0" result="BackgroundImageFix"/>
<feColorMatrix in="SourceAlpha" type="matrix" values="0 0 0 0 0 0 0 0 0 0 0 0 0 0 0 0 0 0 127 0" result="hardAlpha"/>
<feOffset dy="4"/>
<feGaussianBlur stdDeviation="5"/>
<feComposite in2="hardAlpha" operator="out"/>
<feColorMatrix type="matrix" values="0 0 0 0 0 0 0 0 0 0 0 0 0 0 0 0 0 0 0.1 0"/>
<feBlend mode="normal" in2="BackgroundImageFix" result="effect1_dropShadow_174_317"/>
<feBlend mode="normal" in="SourceGraphic" in2="effect1_dropShadow_174_317" result="shape"/>
</filter>
<filter id="filter1_d_174_317" x="551.342" y="113.539" width="116.544" height="153.187" filterUnits="userSpaceOnUse" color-interpolation-filters="sRGB">
<feFlood flood-opacity="0" result="BackgroundImageFix"/>
<feColorMatrix in="SourceAlpha" type="matrix" values="0 0 0 0 0 0 0 0 0 0 0 0 0 0 0 0 0 0 127 0" result="hardAlpha"/>
<feOffset dy="4"/>
<feGaussianBlur stdDeviation="5"/>
<feComposite in2="hardAlpha" operator="out"/>
<feColorMatrix type="matrix" values="0 0 0 0 0 0 0 0 0 0 0 0 0 0 0 0 0 0 0.1 0"/>
<feBlend mode="normal" in2="BackgroundImageFix" result="effect1_dropShadow_174_317"/>
<feBlend mode="normal" in="SourceGraphic" in2="effect1_dropShadow_174_317" result="shape"/>
</filter>
<filter id="filter2_d_174_317" x="485.03" y="117.053" width="91.7806" height="146.16" filterUnits="userSpaceOnUse" color-interpolation-filters="sRGB">
<feFlood flood-opacity="0" result="BackgroundImageFix"/>
<feColorMatrix in="SourceAlpha" type="matrix" values="0 0 0 0 0 0 0 0 0 0 0 0 0 0 0 0 0 0 127 0" result="hardAlpha"/>
<feOffset dy="4"/>
<feGaussianBlur stdDeviation="5"/>
<feComposite in2="hardAlpha" operator="out"/>
<feColorMatrix type="matrix" values="0 0 0 0 0 0 0 0 0 0 0 0 0 0 0 0 0 0 0.1 0"/>
<feBlend mode="normal" in2="BackgroundImageFix" result="effect1_dropShadow_174_317"/>
<feBlend mode="normal" in="SourceGraphic" in2="effect1_dropShadow_174_317" result="shape"/>
</filter>
<filter id="filter3_d_174_317" x="356.004" y="117.053" width="145.993" height="146.16" filterUnits="userSpaceOnUse" color-interpolation-filters="sRGB">
<feFlood flood-opacity="0" result="BackgroundImageFix"/>
<feColorMatrix in="SourceAlpha" type="matrix" values="0 0 0 0 0 0 0 0 0 0 0 0 0 0 0 0 0 0 127 0" result="hardAlpha"/>
<feOffset dy="4"/>
<feGaussianBlur stdDeviation="5"/>
<feComposite in2="hardAlpha" operator="out"/>
<feColorMatrix type="matrix" values="0 0 0 0 0 0 0 0 0 0 0 0 0 0 0 0 0 0 0.1 0"/>
<feBlend mode="normal" in2="BackgroundImageFix" result="effect1_dropShadow_174_317"/>
<feBlend mode="normal" in="SourceGraphic" in2="effect1_dropShadow_174_317" result="shape"/>
</filter>
<filter id="filter4_d_174_317" x="226.977" y="117.053" width="145.993" height="146.16" filterUnits="userSpaceOnUse" color-interpolation-filters="sRGB">
<feFlood flood-opacity="0" result="BackgroundImageFix"/>
<feColorMatrix in="SourceAlpha" type="matrix" values="0 0 0 0 0 0 0 0 0 0 0 0 0 0 0 0 0 0 127 0" result="hardAlpha"/>
<feOffset dy="4"/>
<feGaussianBlur stdDeviation="5"/>
<feComposite in2="hardAlpha" operator="out"/>
<feColorMatrix type="matrix" values="0 0 0 0 0 0 0 0 0 0 0 0 0 0 0 0 0 0 0.1 0"/>
<feBlend mode="normal" in2="BackgroundImageFix" result="effect1_dropShadow_174_317"/>
<feBlend mode="normal" in="SourceGraphic" in2="effect1_dropShadow_174_317" result="shape"/>
</filter>
<filter id="filter5_d_174_317" x="89.9741" y="113.539" width="159.713" height="153.187" filterUnits="userSpaceOnUse" color-interpolation-filters="sRGB">
<feFlood flood-opacity="0" result="BackgroundImageFix"/>
<feColorMatrix in="SourceAlpha" type="matrix" values="0 0 0 0 0 0 0 0 0 0 0 0 0 0 0 0 0 0 127 0" result="hardAlpha"/>
<feOffset dy="4"/>
<feGaussianBlur stdDeviation="5"/>
<feComposite in2="hardAlpha" operator="out"/>
<feColorMatrix type="matrix" values="0 0 0 0 0 0 0 0 0 0 0 0 0 0 0 0 0 0 0.1 0"/>
<feBlend mode="normal" in2="BackgroundImageFix" result="effect1_dropShadow_174_317"/>
<feBlend mode="normal" in="SourceGraphic" in2="effect1_dropShadow_174_317" result="shape"/>
</filter>
<filter id="filter6_d_174_317" x="0" y="113.539" width="116.544" height="153.187" filterUnits="userSpaceOnUse" color-interpolation-filters="sRGB">
<feFlood flood-opacity="0" result="BackgroundImageFix"/>
<feColorMatrix in="SourceAlpha" type="matrix" values="0 0 0 0 0 0 0 0 0 0 0 0 0 0 0 0 0 0 127 0" result="hardAlpha"/>
<feOffset dy="4"/>
<feGaussianBlur stdDeviation="5"/>
<feComposite in2="hardAlpha" operator="out"/>
<feColorMatrix type="matrix" values="0 0 0 0 0 0 0 0 0 0 0 0 0 0 0 0 0 0 0.1 0"/>
<feBlend mode="normal" in2="BackgroundImageFix" result="effect1_dropShadow_174_317"/>
<feBlend mode="normal" in="SourceGraphic" in2="effect1_dropShadow_174_317" result="shape"/>
</filter>
<filter id="filter7_d_174_317" x="538.566" y="3.51373" width="91.7806" height="146.16" filterUnits="userSpaceOnUse" color-interpolation-filters="sRGB">
<feFlood flood-opacity="0" result="BackgroundImageFix"/>
<feColorMatrix in="SourceAlpha" type="matrix" values="0 0 0 0 0 0 0 0 0 0 0 0 0 0 0 0 0 0 127 0" result="hardAlpha"/>
<feOffset dy="4"/>
<feGaussianBlur stdDeviation="5"/>
<feComposite in2="hardAlpha" operator="out"/>
<feColorMatrix type="matrix" values="0 0 0 0 0 0 0 0 0 0 0 0 0 0 0 0 0 0 0.1 0"/>
<feBlend mode="normal" in2="BackgroundImageFix" result="effect1_dropShadow_174_317"/>
<feBlend mode="normal" in="SourceGraphic" in2="effect1_dropShadow_174_317" result="shape"/>
</filter>
<filter id="filter8_d_174_317" x="442.311" y="0" width="116.544" height="153.187" filterUnits="userSpaceOnUse" color-interpolation-filters="sRGB">
<feFlood flood-opacity="0" result="BackgroundImageFix"/>
<feColorMatrix in="SourceAlpha" type="matrix" values="0 0 0 0 0 0 0 0 0 0 0 0 0 0 0 0 0 0 127 0" result="hardAlpha"/>
<feOffset dy="4"/>
<feGaussianBlur stdDeviation="5"/>
<feComposite in2="hardAlpha" operator="out"/>
<feColorMatrix type="matrix" values="0 0 0 0 0 0 0 0 0 0 0 0 0 0 0 0 0 0 0.1 0"/>
<feBlend mode="normal" in2="BackgroundImageFix" result="effect1_dropShadow_174_317"/>
<feBlend mode="normal" in="SourceGraphic" in2="effect1_dropShadow_174_317" result="shape"/>
</filter>
<filter id="filter9_d_174_317" x="317.339" y="3.51373" width="145.993" height="146.16" filterUnits="userSpaceOnUse" color-interpolation-filters="sRGB">
<feFlood flood-opacity="0" result="BackgroundImageFix"/>
<feColorMatrix in="SourceAlpha" type="matrix" values="0 0 0 0 0 0 0 0 0 0 0 0 0 0 0 0 0 0 127 0" result="hardAlpha"/>
<feOffset dy="4"/>
<feGaussianBlur stdDeviation="5"/>
<feComposite in2="hardAlpha" operator="out"/>
<feColorMatrix type="matrix" values="0 0 0 0 0 0 0 0 0 0 0 0 0 0 0 0 0 0 0.1 0"/>
<feBlend mode="normal" in2="BackgroundImageFix" result="effect1_dropShadow_174_317"/>
<feBlend mode="normal" in="SourceGraphic" in2="effect1_dropShadow_174_317" result="shape"/>
</filter>
<filter id="filter10_d_174_317" x="194.566" y="3.51373" width="151.849" height="146.16" filterUnits="userSpaceOnUse" color-interpolation-filters="sRGB">
<feFlood flood-opacity="0" result="BackgroundImageFix"/>
<feColorMatrix in="SourceAlpha" type="matrix" values="0 0 0 0 0 0 0 0 0 0 0 0 0 0 0 0 0 0 127 0" result="hardAlpha"/>
<feOffset dy="4"/>
<feGaussianBlur stdDeviation="5"/>
<feComposite in2="hardAlpha" operator="out"/>
<feColorMatrix type="matrix" values="0 0 0 0 0 0 0 0 0 0 0 0 0 0 0 0 0 0 0.1 0"/>
<feBlend mode="normal" in2="BackgroundImageFix" result="effect1_dropShadow_174_317"/>
<feBlend mode="normal" in="SourceGraphic" in2="effect1_dropShadow_174_317" result="shape"/>
</filter>
<filter id="filter11_d_174_317" x="103.894" y="3.58545" width="130.599" height="146.16" filterUnits="userSpaceOnUse" color-interpolation-filters="sRGB">
<feFlood flood-opacity="0" result="BackgroundImageFix"/>
<feColorMatrix in="SourceAlpha" type="matrix" values="0 0 0 0 0 0 0 0 0 0 0 0 0 0 0 0 0 0 127 0" result="hardAlpha"/>
<feOffset dy="4"/>
<feGaussianBlur stdDeviation="5"/>
<feComposite in2="hardAlpha" operator="out"/>
<feColorMatrix type="matrix" values="0 0 0 0 0 0 0 0 0 0 0 0 0 0 0 0 0 0 0.1 0"/>
<feBlend mode="normal" in2="BackgroundImageFix" result="effect1_dropShadow_174_317"/>
<feBlend mode="normal" in="SourceGraphic" in2="effect1_dropShadow_174_317" result="shape"/>
</filter>
</defs>
</svg>
